<?xml version="1.0" encoding="utf-8"?>
<!-- Generator: Adobe Illustrator 25.3.1, SVG Export Plug-In . SVG Version: 6.00 Build 0)  -->
<svg version="1.1" id="圖層_1" xmlns="http://www.w3.org/2000/svg" xmlns:xlink="http://www.w3.org/1999/xlink" x="0px" y="0px"
	 viewBox="0 0 800 280.9" style="enable-background:new 0 0 800 280.9;" xml:space="preserve">
<style type="text/css">
	.st0{fill:#020203;}
	.st1{opacity:0.75;fill:#1A3546;enable-background:new    ;}
	.st2{opacity:0.75;fill:#B08F42;enable-background:new    ;}
</style>
<g>
	<g>
		<g>
			<g>
				<g>
					<path class="st0" d="M331,179c-5,2.3-16.7,4.1-23.8,4.1c-26.2,0-46.4-14.2-46.4-42.6c0-28.5,20.2-42.8,46.1-42.8
						c5.1,0,14.3,1.6,18.2,1.6c3.3,0,5.3-0.8,6.3-1.5l1.5,1l-4.1,18.6L328,118h-2.5c-1.3-10.1-10.9-14.6-18.7-14.6
						c-18.5,0-28.8,14.4-28.8,37.1c0,22.5,10.4,36.6,28.9,36.6c5,0,17.7-0.9,24.5-14.6l2.9,0.8l0.5,1L331,179z"/>
				</g>
				<g>
					<path class="st0" d="M393.4,181.4v-3.6l7.2-2.1c2.5-0.7,3.3-1.8,3.3-3c0-0.9-0.5-2.6-0.9-4l-6.5-19.6H369l-7.1,20
						c-0.4,0.9-0.8,2.6-0.8,3.4c0,1.6,0.6,2.9,2.6,3.4l8.1,2v3.6h-28V178l4.3-1.6c3.9-1.5,4.9-4.1,6-6.8l26.2-70l14.3-1.3l0.7,0.6
						l24.6,70.4c0.8,2.5,2.2,5.4,6.4,6.8l4.6,1.5v3.9L393.4,181.4L393.4,181.4z M383.1,108.6l-12.4,35.1h24L383.1,108.6z"/>
				</g>
				<g>
					<path class="st0" d="M520.8,177.2c-3.5,3.4-8,6-14.6,6c-12,0-15.8-7.6-19-17.3c-2.1-6.4-4.7-13.5-9.9-18
						c-2.6-2.2-5.7-3.6-9.7-3.6v24c0,5.4,2.2,8.3,11.2,8.3l0.5,0.9l-0.5,4h-37.3v-4.9c8,0,10.4-2.9,10.4-8.3v-55.5
						c0-5.4-2.5-8.3-10.4-8.3v-4.9h37.2c22.8,0,26.9,11.9,26.9,22.6c0,7.2-4.7,17.4-19.5,20.5v0.8c7,0.8,11.7,7.1,14.5,14.5
						c3.4,9,7.4,16.9,13.8,16.9c2.6,0,4.2-0.5,6.4-1.3l0.8,1.2L520.8,177.2z M467.5,138.8c1,0.1,2.8,0.1,3.9,0.1
						c13.3,0,19-8.5,19-19.6c0-7.8-4.3-14.9-13.5-14.9c-7.4,0-9.4,3.2-9.4,8.3V138.8z"/>
				</g>
				<g>
					<path class="st0" d="M532.8,176.5c8,0,10.4-2.9,10.4-8.3v-55.5c0-5.4-2.5-8.3-10.4-8.3v-4.9c14.9,0,30.9-0.6,40.8-0.6
						c25.7,0,46,14.3,46,41.6s-20.2,41.4-46.1,41.4c-9.7,0-25.7-0.6-40.7-0.6V176.5L532.8,176.5z M573.5,176.5
						c18.5,0,28.9-14.4,28.9-35.9s-10.3-36.1-28.8-36.1h-5.8c-6.9,0.1-8.9,3.3-8.9,8.3v55.5c0,5.4,2.2,8.3,10.1,8.3h4.5V176.5z"/>
				</g>
				<g>
					<path class="st0" d="M630.1,163.7l0.9-0.8l4.8-0.5c0.6,8.2,7.5,15.1,14.9,15.1c3.7,0,9.5-1.9,9.5-9.5
						c0-12.3-27.6-10.5-27.6-30.4c0-10.8,9.9-16.1,21.6-16.1c5.5,0,8.8,1,11.8,1c1.5,0,3.4-0.1,5.5-1l1.2,0.6l-1.6,16.5l-1.2,0.6
						h-3.4c0-6.4-3.5-12.9-11.8-12.9c-2.7,0-8,1.8-8,8.1c0,13.7,28.2,11.1,28.2,30.8c0,10.5-10.3,17.7-22.2,17.7
						c-3,0-12.6,0-21.4-4.1L630.1,163.7z"/>
				</g>
				<g>
					<path class="st0" d="M690.6,173.2c0-5.3,4.5-9.6,9.6-9.6c5.3,0,9.6,4.3,9.6,9.6c0,5.4-4.3,9.6-9.6,9.6
						C695.1,182.8,690.6,178.6,690.6,173.2z"/>
				</g>
			</g>
		</g>
		<g>
			<g>
				<g>
					<path d="M734.4,150.5c-0.3,0-0.5-0.1-0.7-0.2s-0.2-0.3-0.2-0.4c0.2-2.6,0.3-5.1,0.3-7.7v-7.1H728c-1.4,0-2.8,0.2-4.4,0.4
						l-0.7-1.5c1.1,0.1,2.4,0.2,3.9,0.2h7.1v-5.7c0-2.5-0.1-4.5-0.4-6.1c2.2,0.5,3.5,0.8,4.1,1c0.4,0.2,0.5,0.4,0.2,0.6l-0.4,0.3
						v3.9h4.2l0.8-1.3c0.1-0.1,0.2-0.2,0.3-0.5c0.4-0.6,0.6-0.9,0.7-0.9c0.2,0,0.8,0.4,1.7,1.3s1.4,1.4,1.4,1.6
						c0,0.3-0.3,0.5-0.7,0.5h-8.4v5.1h7l0.9-1.3c0.1-0.1,0.1-0.2,0.2-0.3c0.5-0.6,0.7-1,0.9-1s0.8,0.4,1.8,1.3
						c1,0.9,1.5,1.4,1.5,1.6c-0.1,0.3-0.3,0.5-0.8,0.5h-10.4c-0.1,0.4-0.5,0.7-1,0.8v1.9c2.7-0.1,4.8,0.2,6.5,0.9
						c1.3,0.5,2.2,1.3,2.5,2.2c0.3,0.8,0.2,1.5-0.3,2s-1.2,0.6-2,0.3c-0.6-0.7-1.5-1.5-2.6-2.4c-1.3-1-2.7-1.8-4.2-2.5v4.1
						c0,2.5,0.1,4.8,0.2,7c-0.1,0.2-0.5,0.5-1.1,0.7C735.7,150.4,735.1,150.5,734.4,150.5z"/>
				</g>
				<g>
					<path d="M735.1,181.5c-0.3,0-0.6-0.1-0.8-0.2c-0.2-0.1-0.2-0.3-0.2-0.4c0.2-2.6,0.3-5.1,0.3-7.7v-8.7h-4.9v5.3
						c0,2.5,0.1,4.8,0.2,7c-0.1,0.3-0.5,0.6-1.1,0.8c-0.6,0.3-1.3,0.5-2,0.5c-0.2,0-0.4-0.1-0.6-0.2s-0.2-0.3-0.2-0.4
						c0.1-1.9,0.2-3.9,0.3-6.1V168c0-2.5-0.1-4.5-0.4-6.1l3.9,1.7h4.7v-4.2H728c-1.4,0-2.8,0.2-4.4,0.4l-0.7-1.5
						c1.1,0.1,2.4,0.2,3.9,0.2h7.7c0-2-0.1-3.6-0.3-4.9c2.2,0.4,3.6,0.8,4.1,1c0.4,0.2,0.4,0.4,0.2,0.6l-0.5,0.4v2.9h5.9l0.9-1.3
						c0.1-0.1,0.2-0.2,0.3-0.5c0.4-0.6,0.7-0.9,0.8-0.9c0.2,0,0.8,0.5,1.9,1.3c1,0.9,1.6,1.5,1.6,1.7c-0.1,0.3-0.3,0.5-0.8,0.5
						h-10.3l0.6,0.1c-0.1,0.4-0.3,0.7-0.9,0.8v3.4h4.6l0.7-0.9c0.1-0.1,0.2-0.2,0.3-0.4c0.3-0.4,0.5-0.6,0.6-0.6
						c0.2,0,0.8,0.4,1.7,1.1c1,0.8,1.5,1.3,1.5,1.5c-0.3,0.3-0.6,0.5-1.1,0.6v9.1c0,1.2-0.2,2.1-0.7,2.7c-0.6,0.7-1.8,1.1-3.5,1.2
						c-0.1-1.2-0.3-2-0.6-2.4c-0.5-0.6-1.3-0.9-2.2-1.1V174c1,0,2,0.1,3,0.1c0.4,0,0.6-0.2,0.6-0.6v-9.3H738v8.7
						c0,2.5,0.1,4.8,0.2,7c-0.1,0.3-0.5,0.6-1.1,0.8C736.4,181.3,735.7,181.5,735.1,181.5z"/>
				</g>
			</g>
		</g>
	</g>
	<g>
		<path class="st1" d="M53.2,146.9l129.1,43.3c2.5,0.8,5-1.3,5-4.3v-82.5c0-2-1.1-3.7-2.8-4.3L55.4,55.9c-2.5-0.8-5,1.3-5,4.3v82.5
			C50.5,144.6,51.6,146.4,53.2,146.9z"/>
		<path class="st2" d="M76.8,181.7l129,43.3c2.5,0.8,5-1.3,5-4.3v-82.5c0-2-1.1-3.7-2.8-4.3L79,90.7c-2.5-0.8-5,1.3-5,4.3v82.5
			C74,179.4,75.1,181.2,76.8,181.7z"/>
	</g>
</g>
</svg>
